<svg version="1.1" id="addemoji" xmlns="http://www.w3.org/2000/svg" xmlns:xlink="http://www.w3.org/1999/xlink" x="0px" y="0px" viewBox="0 0 720 720" style="fill-rule:evenodd;stroke:none" xml:space="preserve">
  <g>
    <path d="M 371.0 447.5 C 383.82944 441.54593 393.86905 429.72958 397.6451 416.11136 C 400.949 401.54117 396.51587 385.70105 386.86746 374.41476 C 386.579 374.11032 386.2886 373.8041 386.0 373.5 C 406.36914 355.51355 425.66666 335.6184 436.4141 310.11652 C 472.46893 232.91884 451.26266 133.20938 385.79736 78.18324 C 349.13266 46.307648 297.0831 31.957466 249.643 44.585747 C 203.55522 56.24133 165.29659 91.35914 146.89279 134.77103 C 109.71139 216.31958 137.76341 323.03412 212.27237 373.70316 C 230.93095 386.78714 252.43797 395.5788 274.8371 399.6525 C 280.10446 401.5006 287.89102 399.39484 291.59396 402.79883 C 294.2143 410.30618 292.35403 419.82855 297.2116 428.3266 C 300.52463 435.95566 305.84933 442.5858 312.56195 447.5414 C 320.52515 453.02985 330.11597 455.40936 339.67468 455.91876 C 347.71176 456.03296 348.54526 465.5562 351.865 470.53592 C 361.3105 488.17908 373.40967 504.13123 386.77725 518.9609 C 405.97885 539.81934 428.0937 557.709 450.43506 575.0501 C 458.92615 581.1331 466.76913 588.13446 475.3673 594.04333 C 481.99966 598.6624 495.49533 598.8715 497.5716 586.7858 C 499.23035 577.41595 491.0201 570.9781 484.98868 566.63715 C 440.52496 534.1717 395.45056 498.421 371.0 447.5 Z M 520.0 94.0 C 531.1669 93.93184 545.62036 94.09653 554.36316 87.67961 C 563.9762 81.02523 564.0697 65.72951 554.9592 58.638306 C 544.9217 48.621136 530.3451 56.162334 519.7302 52.9261 C 517.47797 52.70246 517.55 48.69365 517.09735 47.056572 C 516.67596 36.991985 517.89124 26.723635 515.19434 16.873634 C 512.3448 2.6135693 491.2872 -2.117141 482.32776 9.268859 C 472.6814 20.08405 477.39935 38.852066 476.97113 51.549404 C 476.9929 52.696495 476.99884 53.860035 477.0 55.0 C 463.02805 55.530537 445.0038 52.62877 434.9603 60.723255 C 422.931 70.05929 426.32672 88.11173 439.01297 93.45203 C 451.07495 98.42248 464.9997 91.74666 477.27078 96.04059 C 479.56577 96.22926 479.46622 100.33398 479.90256 101.94135 C 480.59286 111.41028 478.938 121.225174 481.5111 130.5104 C 485.82056 143.71603 505.09406 147.38983 513.7914 136.57974 C 522.73676 126.49743 519.2885 108.951164 520.0 96.96597 C 520.0 95.96569 520.0 94.98607 520.0 94.0 Z " />
</g>
</svg>
