<svg version="1.1" id="addnotice" xmlns="http://www.w3.org/2000/svg" xmlns:xlink="http://www.w3.org/1999/xlink" x="0px" y="0px" viewBox="0 0 720 720" style="fill-rule:evenodd;stroke:none" xml:space="preserve">
  <g>
    <path d="M 274.0 474.0 C 279.3236 505.0356 286.891 535.736 292.70084 566.6823 C 297.89114 589.4847 301.63583 612.58673 306.99194 635.3505 C 309.31314 651.62836 318.14743 667.38885 332.61606 675.8251 C 343.65936 682.4879 356.96793 685.3732 369.73035 683.1192 C 388.223 679.8631 404.12885 666.6151 410.7472 649.07635 C 418.3308 630.19183 410.91507 610.01 407.3527 591.3269 C 398.94672 552.5176 391.64725 513.15076 383.0 474.5 C 392.27505 472.48593 406.70358 477.8692 411.37048 464.36438 C 413.00247 452.37393 411.20737 440.0474 412.0 428.0 C 412.49933 428.0 413.00662 428.0 413.5 428.0 C 433.13092 445.5535 453.3995 462.42358 473.52737 479.3946 C 488.6251 492.43234 503.96228 505.19632 518.629 518.71313 C 529.48566 528.2615 543.9784 537.675 552.5219 547.948 C 555.8328 551.5755 560.7521 555.95544 566.23175 556.525 C 575.93335 550.0152 572.1483 536.60693 572.68097 527.8311 C 571.92737 494.41748 571.84564 461.00107 572.0 427.5856 C 572.0 374.4874 572.0 321.3556 572.0 268.27338 C 571.0019 243.5295 573.2193 218.56418 571.33636 193.89828 C 569.2223 183.75645 559.4358 180.87141 551.1564 184.19865 C 538.34625 190.17421 528.07465 200.59659 515.92834 207.7027 C 481.83893 231.52652 447.7923 255.49977 413.5 279.0 C 411.36075 276.20886 412.29276 271.2465 412.0 267.3177 C 412.05225 260.38553 413.0974 251.10056 408.26227 245.98807 C 404.0531 241.14908 397.14862 240.92867 391.2593 241.00134 C 367.6788 240.99751 344.13882 241.00203 320.56702 241.0 C 308.77808 241.0 296.9971 241.0 285.22412 241.0 C 273.98984 241.54993 259.3599 238.22151 253.14836 248.2498 C 249.68346 256.16977 251.61794 265.32175 251.0 273.64923 C 251.0 282.4352 251.0 291.22534 251.0 300.0 C 236.40894 300.0 221.79106 300.0 207.2 300.0 C 196.27289 300.42368 185.2634 299.45358 174.36716 300.36826 C 166.98051 301.33618 161.603 308.12485 162.01277 315.3784 C 161.97635 339.90967 162.0194 364.4743 162.0 389.0002 C 162.0 402.90292 162.0 416.78485 162.0 430.68488 C 162.54025 440.49463 160.99121 452.41934 163.40561 461.20746 C 167.62885 468.17117 174.54265 469.4646 181.55751 468.99988 C 204.7713 468.88315 227.98778 468.95547 251.17703 470.01627 C 254.96283 470.1435 258.21555 472.3379 261.77094 473.29504 C 265.76602 474.23413 269.9389 473.92938 274.0 474.0 Z M 625.0 263.0 C 640.6972 256.57678 654.2348 245.4263 669.44165 237.99564 C 675.9263 233.6706 683.99976 229.98827 689.7688 225.09856 C 692.36615 216.06267 690.04425 206.24043 691.0 197.0 C 675.4335 203.27818 662.1537 214.48338 647.00995 221.71178 C 640.33276 226.54012 631.33777 229.49171 626.3735 235.07031 C 624.30347 238.40012 625.2783 243.79509 625.0 248.34099 C 625.0 253.2318 625.0 258.11853 625.0 263.0 Z M 625.0 347.0 C 646.99414 347.0 669.0219 347.0 691.0 347.0 C 691.0 338.66327 691.0 330.32605 691.0 322.0 C 668.99 322.0 647.01 322.0 625.0 322.0 C 625.0 330.33456 625.0 338.67633 625.0 347.0 Z M 690.5 519.0 C 691.80524 508.46686 690.36145 497.6031 691.0 487.0 C 684.962 485.2046 679.5702 479.55917 674.6267 476.82388 C 666.7794 471.23312 658.80664 465.8029 650.9554 460.22403 C 643.69653 454.35577 633.51886 449.3921 627.6875 443.0 C 626.78827 443.0 625.8934 443.0 625.0 443.0 C 625.0 448.08786 625.0 453.17175 625.0 458.25412 C 624.8704 462.66293 624.9461 467.05988 625.5521 471.40698 C 633.91864 481.86545 648.8887 488.54388 658.0883 496.29776 C 669.1312 503.54547 679.97784 511.02957 690.5 519.0 Z " />
</g>
</svg>
