<svg version="1.1" id="bookmark" xmlns="http://www.w3.org/2000/svg" xmlns:xlink="http://www.w3.org/1999/xlink" x="0px" y="0px" viewBox="0 0 720 720" style="fill-rule:evenodd;stroke:none" xml:space="preserve">
  <g>
    <path
   d="M 123.0 346.29227 C 123.0 382.72842 123.0 418.91037 123.0 455.1 C 123.0 482.308 123.0 509.508 123.0 536.7 C 121.414474 554.3934 131.56677 573.50995 149.6362 578.3502 C 163.43123 582.8523 177.79533 577.7443 189.78503 571.06866 C 223.18863 551.6027 257.80328 534.1559 291.0678 514.39197 C 300.09244 509.14188 309.3134 504.27472 318.36746 499.07666 C 322.3138 496.77518 326.33176 494.6167 330.2785 492.33252 C 334.0176 490.71252 338.19977 486.93658 342.63388 486.72327 C 374.43427 502.5596 404.6061 522.02655 436.06085 538.60986 C 447.4583 544.93524 460.70438 552.62427 471.23273 558.2778 C 490.6521 567.8273 513.7729 588.5096 539.45703 576.44885 C 547.0712 572.7499 553.4046 566.6803 557.0342 558.75934 C 561.40015 551.19476 561.4582 542.5698 561.0 534.05585 C 561.0 471.26404 561.0 408.52185 561.0 345.74603 C 561.0 309.77716 561.0 273.76663 561.0 237.79773 C 561.42267 210.96733 560.25934 184.12463 560.192 157.30394 C 562.8581 139.50899 553.9923 120.54065 537.1086 113.28929 C 523.56805 107.88681 508.6871 109.13489 494.43503 109.0 C 449.22772 109.003105 404.02924 108.78634 358.8358 109.63168 C 320.25262 110.30426 281.645 108.64432 243.07033 109.0 C 214.30174 109.899635 185.29768 108.117744 156.61505 110.7815 C 137.64922 113.55554 121.869865 131.18866 123.0 150.79042 C 123.0 215.88974 123.0 280.97073 123.0 346.29227 Z M 196.0 339.7527 C 196.0 383.39685 196.0 426.81714 196.0 470.2 C 196.05473 472.57263 196.02454 476.07217 197.60342 477.3964 C 201.42853 481.48596 206.46455 476.92856 209.60754 475.65057 C 235.75739 461.0549 261.80276 446.33188 287.86047 431.56442 C 300.65976 425.04816 312.65823 416.96768 325.6287 410.80167 C 337.88544 404.93274 352.2533 406.42548 363.71075 413.4204 C 401.48355 434.27805 438.80896 455.95877 476.55402 476.84372 C 481.19254 480.15118 488.62424 479.86826 487.97565 471.7068 C 488.03558 427.63583 487.63156 383.58713 487.5468 339.5189 C 487.4497 315.63007 487.35266 291.75113 487.25558 267.8745 C 487.18246 249.8888 487.1094 231.91107 487.03635 213.94133 C 487.1509 207.71892 487.13306 201.03413 483.5473 195.61748 C 476.92545 185.46762 467.4943 182.21231 456.57755 183.0044 C 421.68292 183.0956 386.78564 183.30772 351.90326 183.42477 C 326.35022 183.53214 300.80835 183.63947 275.25772 183.74681 C 255.94308 184.02916 236.61176 183.66385 217.30849 184.12279 C 205.11444 185.77145 195.39241 198.12938 196.0 210.18584 C 196.0 253.2982 196.0 296.38995 196.0 339.7527 Z " />
</g>
</svg>
