<svg version="1.1" id="emoji" xmlns="http://www.w3.org/2000/svg" xmlns:xlink="http://www.w3.org/1999/xlink" x="0px" y="0px" viewBox="0 0 720 720" style="fill-rule:evenodd;stroke:none" xml:space="preserve">
  <g>
    <path d="M 371.0 447.5 C 383.82944 441.54593 393.86905 429.72958 397.6451 416.11136 C 400.949 401.54117 396.51587 385.70105 386.86746 374.41476 C 386.579 374.11032 386.2886 373.8041 386.0 373.5 C 406.36914 355.51355 425.66666 335.6184 436.4141 310.11652 C 472.46893 232.91884 451.26266 133.20938 385.79736 78.18324 C 349.13266 46.307648 297.0831 31.957466 249.643 44.585747 C 203.55522 56.24133 165.29659 91.35914 146.89279 134.77103 C 109.71139 216.31958 137.76341 323.03412 212.27237 373.70316 C 230.93095 386.78714 252.43797 395.5788 274.8371 399.6525 C 280.10446 401.5006 287.89102 399.39484 291.59396 402.79883 C 294.2143 410.30618 292.35403 419.82855 297.2116 428.3266 C 300.52463 435.95566 305.84933 442.5858 312.56195 447.5414 C 320.52515 453.02985 330.11597 455.40936 339.67468 455.91876 C 347.71176 456.03296 348.54526 465.5562 351.865 470.53592 C 361.3105 488.17908 373.40967 504.13123 386.77725 518.9609 C 405.97885 539.81934 428.0937 557.709 450.43506 575.0501 C 458.92615 581.1331 466.76913 588.13446 475.3673 594.04333 C 481.99966 598.6624 495.49533 598.8715 497.5716 586.7858 C 499.23035 577.41595 491.0201 570.9781 484.98868 566.63715 C 440.52496 534.1717 395.45056 498.421 371.0 447.5 Z " />
</g>
</svg>
