<svg version="1.1" id="home" xmlns="http://www.w3.org/2000/svg" xmlns:xlink="http://www.w3.org/1999/xlink" x="0px" y="0px" viewBox="0 0 720 720" style="fill-rule:evenodd;stroke:none" xml:space="preserve">
  <g>
    <path
    d="m 103,378.5 c -2.56064,3.38455 -4.249115,9.0466 -6.93123,13.33313 -2.94739,6.06587 -9.73034,13.3862 -3.7825,21.67935 4.81341,5.64038 11.91578,8.59332 18.0789,12.41322 14.42292,7.54253 27.91281,17.1921 42.63483,24.0743 -0.89648,13.093 -2.62901,26.16367 -3.64806,39.24106 -0.0835,11.10058 -4.14306,24.84354 -1.11993,34.87914 4.11142,8.6734 13.21138,13.0451 21.015,17.47324 54.71391,31.50496 109.52301,62.88496 164.29764,94.2801 12.72708,7.48229 25.68865,14.51556 38.39163,22.01296 5.65132,3.25376 11.24942,6.56046 16.93484,9.7422 10.25513,7.43343 25.97965,8.3513 36.69074,3.4943 38.284,-19.64503 75.61951,-41.07655 113.63504,-61.2183 9.70325,-4.8348 18.91113,-10.57096 28.6408,-15.33616 3.5979,-1.89474 7.3899,-3.89794 9.79993,-7.30694 3.89727,-7.1403 1.61493,-15.9287 2.36237,-23.64875 V 491 c 12.31305,-5.15027 23.3367,-13.45703 35.566,-18.91324 14.76475,-7.97433 5.129,-26.31521 1.6932,-37.77829 -6.3333,-18.09064 -12.3509,-36.28195 -19.0185,-54.24207 -5.7594,-15.81747 -10.8081,-31.86257 -16.5782,-47.67474 -2.7972,-7.00869 5.73734,-13.15402 9.6089,-18.14981 17.8825,-20.69825 36.0698,-41.1431 54.08205,-61.70727 5.83645,-7.89168 15.61438,-15.58121 18.95441,-24.16863 1.42389,-4.19591 2.61469,-9.44212 1.28154,-13.34349 -2.7339,-7.57548 -12.9861,-11.0596 -18.9154,-15.27344 -48.37835,-29.9873 -97.0507,-59.50729 -145.60006,-89.20517 -13.62396,-8.13251 -27.00984,-16.58879 -40.60562,-24.761204 -6.07815,-3.551986 -11.94107,-7.424056 -18,-11 -11.08679,-7.339956 -27.18347,-14.555801 -37.2333,-4.115166 -31.14712,34.07615 -60.57512,70.31131 -91.86462,104.09395 -38.30982,22.09212 -76.74899,43.99132 -115.05694,66.0782 -9.21965,5.19603 -18.34125,10.55847 -27.56128,15.75317 -7.25685,3.89084 -14.39285,12.53086 -21.72709,18.88263 -25.38598,22.57212 -49.63161,46.43924 -74.9744,69.05463 -5.90334,5.99579 -12.664425,11.11468 -18.221226,17.45551 -3.365964,3.9548 -8.220504,9.04956 -5.994026,15.67181 3.869118,12.01732 15.223482,8.89882 24.202122,6.79849 C 83.54516,382.5468 93.645615,380.18866 103,378.5 Z m 1,-27.04102 c 1.82271,1.08747 5.21433,-0.72258 7.14721,-0.48895 2.46355,-0.56533 6.25117,-0.90673 7.56696,-3.117 3.94667,-5.27265 5.46986,-12.03235 9.28583,-17.35303 -3.49562,0.13522 -6.75296,5.65323 -9.37006,7.37006 -4.83664,4.52826 -10.20745,8.67572 -14.62994,13.58892 z m 32.50281,41.87521 c 38.33205,23.70953 71.83644,46.53344 110.49258,69.74774 19.71823,11.27686 37.50412,22.06912 57.15308,33.435 9.82227,5.62771 19.91433,11.9516 29.70312,17.63446 10.10848,4.62299 9.74987,-3.86252 11.43878,-7.45842 12.98933,-31.90852 19.34555,-36.84157 27.54705,-67.32277 1.9245,-5.53732 2.80524,-7.8159 4.62971,-13.37111 1.56415,-4.96413 1.24919,-11.8464 -3.19994,-14.43543 -35.38163,-19.97656 -63.0534,-32.71022 -98.62515,-52.34252 -35.86493,-19.125 -63.13597,-34.19835 -99.2643,-52.70207 -7.3779,17.87637 -11.74317,29.28123 -19.67817,46.95158 -9.0806,17.4834 -10.98986,22.6606 -20.19676,39.86354 z m 256.90853,227.01317 c 1.42593,-28.33057 0.91632,-32.34136 1.67559,-60.72906 -0.68695,-28.1379 -0.36813,-58.11918 -2.11413,-86.15363 -8.46494,26.26782 -10.39602,54.42876 -18.8756,80.70147 -2.58734,12.05401 -14.8417,16.11876 -24.2449,10.24121 -57.83695,-32.58475 -102.60601,-60.66172 -160.52598,-92.88444 -1.8154,13.48907 -1.79297,13.5531 -3.12374,27.09097 -0.81628,4.16498 4.76803,6.28348 10.0971,8.94463 27.00618,15.78485 45.87091,26.50206 73.02898,42.02856 46.97635,27.5084 77.12104,43.26259 124.08268,70.76029 z M 211.8842,270.10464 c 19.47385,12.3314 28.8261,18.89786 48.9157,30.6568 21.30999,11.13438 34.00837,18.72933 55.67417,29.03953 -0.75925,-46.9289 -2.39913,-70.95556 -3.82506,-117.80445 -41.1969,24.0138 -59.8587,33.94691 -100.76481,58.10812 z m 142.18335,70.35374 c 17.65167,8.50674 17.11604,8.35897 34.54341,17.40893 5.87927,2.81752 13.17712,6.42655 19.07389,10.67334 8.77992,5.85727 16.76029,9.74563 21.62166,7.63593 39.73788,-21.6852 63.51275,-29.76615 103.1,-51.67658 C 465.11433,283.4391 419.23023,262.99435 351.89257,222.06755 l 0.43795,15.63329 z m 15.03313,-169.68125 c 51.40985,30.53314 76.99185,45.48819 128.67749,75.70489 13.22846,7.33806 23.12389,13.0122 36.35789,20.3178 4.9015,2.95926 4.4727,2.51486 9.36525,5.46858 2.13835,1.33096 7.15618,4.60729 9.32275,5.86727 5.5827,3.89908 10.52441,0.30991 13.53612,-3.46066 22.20035,-25.28702 21.99033,-24.74852 44.61793,-49.63968 -36.4655,-21.91559 -58.12255,-34.52554 -94.5977,-56.46569 -36.33665,-21.68146 -59.49064,-35.18437 -96.04447,-56.38203 -25.67441,29.49076 -25.60193,29.12364 -51.23526,58.58952 z m 62.34772,454.72006 c 30.69952,-15.666 45.5194,-22.80595 75.98946,-39.00944 7.5463,-3.91296 17.69893,-8.58409 24.60123,-12.21759 2.9142,-1.4982 5.53461,-2.31936 8.396,-3.91686 2.09304,-1.53046 3.7118,-2.14027 4.78234,-4.15907 1.44776,-11.10626 -0.11644,-17.0147 0.57056,-28.184 -0.63306,-11.0142 -0.12146,-16.90169 -1.4212,-27.79009 -12.85376,8.60223 -19.71979,10.85946 -31.88779,18.19246 -10.4431,6.1696 -21.39132,11.42627 -31.86648,17.5399 -6.95162,3.80763 -17.72932,10.90346 -25.15289,1.4603 -10.85257,-25.4323 -13.59134,-51.3146 -24.20416,-76.79867 -1.49832,28.2111 0.21787,57.2657 -0.72827,85.65063 z m 46.5788,-125.29894 c 36.78305,-20.56018 53.313,-27.60386 90.25976,-47.95884 2.459,-1.23911 12.40703,-6.49978 12.40703,-6.49978 1.704,-1.20663 1.35117,-2.90161 1.39297,-4.95187 -13.50671,-37.36349 -15.48703,-43.05911 -29.03536,-78.89908 -42.1278,23.13068 -64.4357,33.72221 -106.84772,56.18199 -0.67773,10.01657 2.67059,12.32186 6.39913,21.32519 10.675,26.19584 13.98947,34.99749 25.42419,60.80239 z"/>
    </g>
</svg>
