<svg version="1.1" id="info" xmlns="http://www.w3.org/2000/svg" xmlns:xlink="http://www.w3.org/1999/xlink" x="0px" y="0px" viewBox="0 0 720 720" style="fill-rule:evenodd;stroke:none" xml:space="preserve">
  <g>
    <path
   d="M 36.0 348.93124 C 35.666733 433.58746 70.79879 517.9621 130.87007 577.37006 C 190.369 638.56476 275.22858 672.52454 360.14355 672.861 C 382.86203 672.657 405.49582 670.80396 427.67548 665.7796 C 463.91885 657.6469 499.0512 644.37256 530.5302 624.3701 C 576.2831 596.58777 613.92145 557.1071 640.88025 511.0299 C 668.6416 461.72232 685.3417 405.04144 684.0 348.12607 C 684.54474 304.5324 675.09174 260.7542 658.08716 220.71588 C 645.70557 192.34683 629.5711 165.50949 609.7692 141.6742 C 595.05695 123.68262 578.2236 107.74955 559.918 93.34298 C 503.59204 47.72092 431.467 24.95519 359.56573 24.052458 C 315.9735 25.593784 272.09363 32.589466 232.12862 50.947617 C 175.48724 75.055046 126.284256 116.09455 91.86122 166.9954 C 55.366768 220.07762 36.071663 284.5189 36.0 348.93124 Z M 113.00009 348.20874 C 113.315704 412.76453 139.1106 477.39804 185.10225 522.60223 C 230.70343 568.2971 295.3347 596.6575 360.36816 595.0 C 425.63843 596.97876 490.01544 568.13074 535.87006 522.62994 C 580.32324 476.5128 608.96356 412.65598 607.0 347.6239 C 608.1291 283.56686 580.29895 219.4818 535.12994 174.62993 C 489.7207 127.12931 423.42877 101.116905 358.14804 102.0 C 294.0522 101.7383 230.83879 128.62993 185.62993 173.87007 C 138.99226 219.16255 113.90137 283.52786 113.00009 348.20874 Z M 313.04303 217.4401 C 312.10455 243.0105 335.93704 265.4914 361.33035 262.563 C 385.39908 261.06235 404.3648 238.1562 401.96353 214.43272 C 401.34726 190.51146 377.61002 171.11916 354.2519 173.2578 C 331.74484 174.72243 312.91537 194.78456 313.04303 217.4401 Z M 320.00082 409.1901 C 320.46008 428.4129 320.5255 447.3825 321.5868 466.28177 C 323.39645 487.47876 322.52676 521.2958 349.98935 531.0583 C 362.33862 535.06616 376.68625 531.153 385.14035 521.20715 C 393.3975 511.47363 395.4434 498.26254 396.82697 486.00836 C 398.53473 460.4119 399.4107 434.77563 398.9999 409.11792 C 398.23743 384.90808 398.31418 356.14084 394.17972 334.22614 C 393.0763 319.35782 384.5467 304.81546 369.90372 299.65494 C 358.91513 296.2197 345.846 298.4299 337.28964 306.30133 C 324.4499 318.18216 322.69443 337.1674 321.62225 353.52676 C 321.19495 371.50903 320.4188 392.47168 320.00082 409.1901 Z " />
</g>
</svg>
