<svg version="1.1" id="settings" xmlns="http://www.w3.org/2000/svg" xmlns:xlink="http://www.w3.org/1999/xlink" x="0px" y="0px" viewBox="0 0 720 720" style="fill-rule:evenodd;stroke:none" xml:space="preserve">
  <g>
    <path d="M 198.0 397.84525 C 198.0 436.04596 198.0 474.0151 198.0 512.0 C 198.0 526.3983 198.0 540.8017 198.0 555.2 C 198.73798 575.705 192.11551 604.51044 213.5688 620.3053 C 229.58684 633.0387 246.55182 631.2496 264.28528 631.0 C 319.9807 631.0 375.67615 631.0 431.37158 631.0 C 448.13422 631.0 464.93048 631.0 481.67715 631.0 C 496.23233 630.67474 514.05347 632.49994 526.8036 627.4672 C 538.5172 623.2169 548.49396 614.10834 552.58044 602.20715 C 556.61066 589.2291 554.19586 575.26465 555.0 561.8955 C 554.5279 536.3919 555.79944 510.83475 554.0179 485.3805 C 552.5833 475.99072 548.0596 465.08356 541.9837 458.78387 C 528.14746 445.87015 506.7001 441.14084 489.37518 450.40735 C 474.37262 457.77695 465.11996 473.87186 466.00537 490.49777 C 465.1688 505.7997 467.0854 523.99243 465.23215 537.95654 C 464.08743 543.8188 458.6139 548.953 453.59537 551.0005 C 447.37836 552.8312 440.6476 551.502 434.28687 552.0 C 409.53375 552.0 384.8222 552.0 360.0691 552.0 C 341.66678 551.76184 323.25223 552.50006 304.893 551.21423 C 289.82697 549.97504 286.34686 532.44916 287.0 521.91656 C 287.0 480.5446 287.0 439.1806 287.0 397.82465 C 287.0 368.0426 287.0 338.26852 287.0 308.50247 C 287.0 296.71274 287.0 284.923 287.0 273.13327 C 287.76828 263.63654 284.61218 248.02048 295.39844 245.08778 C 317.22308 242.99225 339.28522 244.64516 361.16968 244.0 C 381.94617 244.0 402.71463 244.0 423.47513 244.0 C 432.74384 244.40973 443.79932 243.31848 452.21417 244.81535 C 461.87814 246.72766 465.9632 254.82634 464.7954 263.30533 C 464.40225 277.9529 460.85873 296.506 472.60284 311.3215 C 481.39163 324.0059 497.1832 330.327 512.25195 328.8571 C 526.88715 328.68027 539.6294 320.25952 547.689 308.34906 C 555.8156 296.68195 554.7611 281.53418 555.0 268.1647 C 555.0 254.00876 555.0 239.86078 555.0 225.72076 C 554.8342 213.52754 556.6138 200.38686 550.58405 189.19183 C 545.6803 179.46025 536.659 171.78233 526.3323 168.27864 C 515.90405 164.15755 504.58978 164.88199 493.6282 165.0 C 450.24634 165.0 406.86447 165.0 363.4826 165.0 C 331.08813 165.0 298.70166 165.0 266.3232 165.0 C 254.92563 165.4358 241.0983 163.92767 230.9074 166.90958 C 212.90604 171.22205 197.33629 187.92545 198.0 207.18935 C 198.0 270.68295 198.0 334.14664 198.0 397.84525 Z M 582.5 397.0 C 583.0099 397.16998 583.49506 397.3317 584.0 397.5 C 575.88416 402.84848 566.0494 409.56912 559.8399 415.9931 C 552.1457 424.32614 557.7259 439.41254 568.9185 441.01227 C 579.84845 443.1504 590.1457 431.67136 598.606 426.93112 C 606.3797 421.31586 614.2106 415.7662 622.0446 410.22403 C 628.9448 404.508 638.71454 399.64703 644.2471 393.46677 C 650.71216 386.33044 651.5557 374.47583 646.17145 366.45377 C 641.08264 359.14688 632.6515 355.19897 625.91364 349.70804 C 618.8672 344.73364 611.8489 339.71628 604.7752 334.80453 C 597.80963 329.9763 590.77026 325.26624 583.95685 320.2197 C 572.3405 309.8784 554.58997 319.1663 556.34845 333.3511 C 558.2695 346.1725 575.08405 351.63388 583.0 359.5 C 551.506 360.92593 519.5939 359.24075 488.0245 360.0 C 464.3743 360.57623 440.6865 359.29453 417.06686 360.38773 C 407.90463 360.66946 402.08414 365.59314 399.40103 373.44565 C 398.47696 379.24915 398.8393 387.41855 404.52454 392.2232 C 413.22452 399.70062 429.8293 395.88852 442.13403 397.0 C 482.84427 397.0 523.5881 397.0 564.28235 397.0 C 570.3681 397.0 576.42596 397.0 582.5 397.0 Z " />
</g>
</svg>
