<svg version="1.1" id="menu" xmlns="http://www.w3.org/2000/svg" xmlns:xlink="http://www.w3.org/1999/xlink" x="0px" y="0px" viewBox="0 0 1024 1024" style="fill-rule:evenodd;stroke:none" xml:space="preserve">
<g>
<path d="M 135.10014 261.76584 C 135.88863 281.9272 143.10472 302.10645 158.23271 315.7327 C 172.61064 330.8369 193.77208 337.93262 214.2589 337.0 C 339.75922 337.0 465.30118 337.0 590.8015 337.0 C 653.5447 337.0 716.3296 337.0 779.07275 337.0 C 794.18414 336.49866 812.05054 337.75153 825.85876 336.2494 C 846.2525 332.55884 865.39734 320.66638 876.54706 302.8964 C 888.4119 284.9397 891.546 262.0605 885.84174 241.45285 C 878.5426 216.8039 858.16205 195.88255 832.9972 189.4408 C 820.6477 185.68124 807.4179 187.51292 794.75134 187.0 C 598.49036 187.0817 402.22546 186.90038 205.97005 187.0538 C 166.96121 187.98091 135.5205 223.65862 135.10014 261.76584 Z M 135.10014 511.76584 C 135.88863 531.9272 143.10472 552.10645 158.23271 565.7327 C 172.61064 580.8369 193.77208 587.9326 214.2589 587.0 C 339.7672 587.0 465.30917 587.0 590.8015 587.0 C 653.5586 587.0 716.3157 587.0 779.07275 587.0 C 794.18414 586.49866 812.05054 587.7515 825.85876 586.2494 C 846.2525 582.55884 865.39734 570.6664 876.54706 552.89636 C 888.4119 534.9397 891.546 512.0605 885.84174 491.45285 C 878.5426 466.8039 858.16205 445.88257 832.9972 439.4408 C 820.6477 435.68124 807.4179 437.51294 794.75134 437.0 C 598.49036 437.0817 402.22546 436.90036 205.97005 437.0538 C 166.96121 437.9809 135.5205 473.65863 135.10014 511.76584 Z M 135.10014 761.7658 C 135.88863 781.9272 143.10472 802.10645 158.23271 815.7327 C 172.61064 830.8369 193.77208 837.9326 214.2589 837.0 C 339.7672 837.0 465.30917 837.0 590.8015 837.0 C 653.5586 837.0 716.3157 837.0 779.07275 837.0 C 794.18414 836.49866 812.05054 837.7515 825.85876 836.2494 C 846.2525 832.55884 865.39734 820.6664 876.54706 802.89636 C 888.4119 784.9397 891.546 762.0605 885.84174 741.4528 C 878.5426 716.8039 858.16205 695.88257 832.9972 689.4408 C 820.6477 685.6812 807.4179 687.51294 794.75134 687.0 C 598.49036 687.0817 402.22546 686.9004 205.97005 687.0538 C 166.96121 687.9809 135.5205 723.6586 135.10014 761.7658 Z " />
</g>
</svg>
