<svg version="1.1" id="notice" xmlns="http://www.w3.org/2000/svg" xmlns:xlink="http://www.w3.org/1999/xlink" x="0px" y="0px" viewBox="0 0 720 720" style="fill-rule:evenodd;stroke:none" xml:space="preserve">
  <g>
    <path
   d="m 274,474 c 5.3236,31.0356 12.891,61.736 18.70084,92.6823 5.1903,22.8024 8.93499,45.90443 14.2911,68.6682 2.3212,16.27786 11.15549,32.03835 25.62412,40.4746 11.0433,6.6628 24.35187,9.5481 37.11429,7.2941 18.49265,-3.2561 34.3985,-16.5041 41.01685,-34.04285 7.5836,-18.88452 0.16787,-39.06635 -3.3945,-57.74945 C 398.94672,552.5176 391.64725,513.15076 383,474.5 c 9.27505,-2.01407 23.70358,3.3692 28.37048,-10.13562 C 413.00247,452.37393 411.20737,440.0474 412,428 c 0.49933,0 1.00662,0 1.5,0 19.63092,17.5535 39.8995,34.42358 60.02737,51.3946 15.09773,13.03774 30.43491,25.80172 45.10163,39.31853 10.85666,9.54837 25.3494,18.96187 33.8929,29.23487 3.3109,3.6275 8.2302,8.00744 13.70985,8.577 9.7016,-6.5098 5.91655,-19.91807 6.44922,-28.6939 -0.7536,-33.41362 -0.83533,-66.83003 -0.68097,-100.2455 0,-53.0982 0,-106.23 0,-159.31222 -0.9981,-24.74388 1.2193,-49.7092 -0.66364,-74.3751 -2.11406,-10.14183 -11.90056,-13.02687 -20.17996,-9.69963 -12.81015,5.97556 -23.08175,16.39794 -35.22806,23.50405 C 481.83893,231.52652 447.7923,255.49977 413.5,279 c -2.13925,-2.79114 -1.20724,-7.7535 -1.5,-11.6823 0.0523,-6.93217 1.0974,-16.21714 -3.73773,-21.32963 -4.20917,-4.83899 -11.11365,-5.0594 -17.00297,-4.98673 -23.5805,-0.004 -47.12048,6.9e-4 -70.69228,-0.001 -11.78894,0 -23.56992,0 -35.3429,0 -11.23428,0.54993 -25.86422,-2.77849 -32.07576,7.2498 -3.4649,7.91997 -1.53042,17.07195 -2.14836,25.39943 0,8.78597 0,17.57611 0,26.35077 -14.59106,0 -29.20894,0 -43.8,0 -10.92711,0.42368 -21.9366,-0.54642 -32.83284,0.36826 -7.38665,0.96792 -12.76416,7.75659 -12.35439,15.01014 -0.0364,24.53127 0.007,49.0959 -0.0128,73.6218 0,13.90272 0,27.78465 0,41.68468 0.54025,9.80975 -1.00879,21.73446 1.40561,30.52258 4.22324,6.96371 11.13704,8.25714 18.1519,7.79242 23.21379,-0.11673 46.43027,-0.0444 69.61952,1.01639 3.7858,0.12723 7.03852,2.32163 10.59391,3.27877 3.99508,0.93909 8.16796,0.63434 12.22906,0.70496 z"
/>
</g>
</svg>
