<svg version="1.1" id="notification" xmlns="http://www.w3.org/2000/svg" xmlns:xlink="http://www.w3.org/1999/xlink" x="0px" y="0px" viewBox="0 0 720 720" style="fill-rule:evenodd;stroke:none" xml:space="preserve">
  <g>
    <path
       d="m 274.35721,544.30707 c -1.99213,13.1396 5.71057,29.96193 14.00843,39.46413 8.08116,10.03736 33.61978,20.75537 46.10998,22.09077 17.08125,1.2368 34.95503,1.17082 51.71241,-2.83839 17.60552,-4.80226 37.23117,-18.86132 44.25676,-32.90844 3.78639,-7.14273 3.87003,-21.18235 3.86863,-23.09715 44.86005,-2.94885 75.17306,-9.75629 118.38686,-23.08429 9.1901,-2.7217 21.4307,-8.27257 22.02864,-20.65724 -1.42414,-16.23569 -7.01314,-31.92594 -10.16528,-47.85788 -4.52356,-15.54788 -8.06921,-31.345 -12.66386,-46.86661 -14.11416,-52.97385 -27.66807,-99.49099 -39.37835,-153.04762 -1.36765,-6.789 -4.27166,-16.28731 -5.86281,-23.01283 -0.95121,-5.83649 -2.48637,-11.43039 -3.15461,-17.31392 -2.13207,-12.2982 -9.15386,-23.43337 -16.79113,-30.58698 -20.61843,-21.62895 -43.29722,-37.41342 -71.85334,-46.13292 -54.99256,-17.81 -117.8331,-5.47943 -162.61542,30.7388 -10.82613,8.50772 -17.88394,14.64398 -26.36128,25.48342 -6.30756,7.91113 -10.12608,16.97563 -13.43092,26.7994 -3.27921,15.95717 -8.42434,35.59331 -11.39544,51.239 -3.58606,15.64898 -7.47369,31.19513 -11.19738,46.80798 -14.45289,56.42393 -30.32775,112.50324 -44.09644,169.0906 -1.63319,6.61717 -3.31006,14.92274 -0.77652,20.88115 4.70566,11.15069 22.14583,15.099 31.27384,17.56445 37.75281,10.42737 59.32398,13.64673 98.09723,17.24457 z m -84.24839,-57.81801 c 61.68307,17.79456 103.05211,19.95459 167.59751,19.72979 65.10708,-1.87158 116.29533,-3.97854 171.41312,-19.72979 -3.53894,-23.78726 -10.42263,-36.9448 -15.81787,-60.33203 -11.18286,-40.66397 -20.80042,-71.59275 -30.85259,-112.54996 -8.09025,-30.68149 -12.35049,-48.80619 -20.56268,-79.43942 -4.56879,-13.84283 -10.54254,-21.96627 -25.63799,-34.06912 -35.51834,-28.47704 -53.14989,-23.7603 -75.25967,-23.58568 -20.77942,0.16412 -42.80172,5.89956 -60.79409,16.11866 -8.2427,4.83682 -14.95791,7.80388 -21.97748,14.3271 -7.42111,6.28002 -12.55916,11.06615 -18.61053,18.74249 -5.79463,13.30325 -10.02811,22.80556 -13.5713,34.26766 -9.04821,42.81032 -17.42178,75.3586 -28.7275,117.61403 -10.3882,41.65891 -18.57047,66.87447 -27.19893,108.90627 z m 129.47401,62.35723 c -3.67988,1.72776 -3.11926,9.05219 2.2645,14.28317 5.39999,4.0319 25.16202,11.99066 35.012,12.2527 9.79526,-0.55933 28.97063,-5.46645 35.44438,-14.17127 3.58102,-6.20339 3.25699,-13.22013 1.0019,-14.37531 -18.62374,-5.67417 -57.51362,-5.24552 -73.72278,2.01071 z"/>
    <circle
       cx="583.42706"
       cy="116.68542"
       r="57.728573" />
  </g>
</svg>
