<svg version="1.1" id="others" xmlns="http://www.w3.org/2000/svg" xmlns:xlink="http://www.w3.org/1999/xlink" x="0px" y="0px" viewBox="0 0 720 720" style="fill-rule:evenodd;stroke:none" xml:space="preserve">
  <g>
    <path d="M 101.0 185.0 C 118.520195 329.43872 135.70976 473.9391 153.06053 618.3911 C 155.99454 636.6814 175.20963 647.3669 192.53061 646.0 C 262.52097 646.0 332.51196 646.0 402.4953 646.0 C 437.48865 646.0 472.5157 646.0 507.493 646.0 C 516.2182 645.80945 524.9429 646.27216 533.6537 645.75525 C 539.8468 645.5515 546.3119 646.9798 552.20386 644.04474 C 570.3652 636.84985 567.8249 613.65137 570.3239 598.43115 C 578.72577 529.6602 586.7453 460.86703 595.1191 392.09332 C 599.2315 357.67676 603.40344 323.26486 607.5158 288.85373 C 609.44147 271.62878 611.78424 254.45256 613.7086 237.22833 C 615.0111 219.7879 618.966 202.52545 619.0 185.0 C 631.7037 184.5839 648.41675 188.14395 660.5105 176.79034 C 669.8542 167.46317 671.6546 151.0254 663.5102 140.34016 C 653.2273 124.28198 633.0299 128.00935 618.5444 128.0 C 599.383 128.0 580.188 128.0 561.04254 128.0 C 505.025 128.0 449.0089 128.0 393.0 128.0 C 395.5405 114.991356 394.3317 98.313446 389.064 87.345955 C 382.6819 75.28421 369.45718 67.9959 355.9531 68.49808 C 331.75928 69.5868 318.48544 90.26666 320.0 111.1421 C 320.72412 116.512886 318.94452 123.26407 321.0 127.5 C 260.86624 128.92592 200.38127 127.24074 140.18651 128.0 C 124.99728 128.0 109.8576 128.0 94.68432 128.0 C 85.40669 128.13002 73.40994 126.179695 64.41629 134.19795 C 52.92965 143.30151 49.520515 161.36638 58.8082 173.22139 C 69.6587 189.31187 87.36157 184.3476 101.0 185.0 Z M 161.0 186.25 C 170.18124 251.47539 176.38605 317.98975 185.08434 383.46564 C 192.83174 450.66113 201.57089 517.78735 209.0 585.0 C 266.02188 585.0 322.9941 585.0 380.0 585.0 C 422.78964 584.80133 465.60098 585.24225 508.38016 584.8692 C 512.91974 584.8869 513.35126 580.64716 513.36536 577.3046 C 526.4984 464.81903 540.59247 352.44067 553.7767 239.96967 C 555.57007 221.62315 558.69464 203.38637 560.0 185.0 C 493.4 185.0 426.8 185.0 360.2 185.0 C 326.8 185.0 293.4 185.0 260.0 185.0 C 243.2 185.0 226.4 185.0 209.6 185.0 C 201.2 185.0 192.8 185.0 184.4 185.0 C 176.67282 185.90146 167.25517 183.7652 161.0 186.0 C 161.0 186.09 161.0 186.17334 161.0 186.25 Z M 245.10893 272.2493 C 250.03056 310.85754 255.6688 349.143 260.86856 387.45422 C 264.68518 415.79755 268.54272 444.13202 272.56284 472.4342 C 274.27216 482.27948 274.3112 495.0147 279.93732 502.80475 C 285.05743 510.13083 293.2403 515.7411 302.42056 515.93024 C 318.4635 517.3307 334.42294 504.95752 336.60635 488.83115 C 337.83102 476.29538 334.74973 463.8207 333.25705 451.46097 C 328.66895 415.02792 322.91574 378.7711 318.26212 342.34888 C 314.86273 318.49213 311.69534 294.62057 308.34265 270.77023 C 307.91727 253.9107 293.9649 238.11162 276.23575 239.4114 C 259.53247 240.62753 245.65512 255.32709 245.10893 272.2493 Z M 361.2582 271.96204 C 365.76648 310.1979 371.71097 348.10208 376.76892 386.08932 C 380.6171 414.6726 384.61935 443.22125 388.6265 471.771 C 390.23236 482.35663 390.2688 493.75946 396.25287 503.07794 C 408.60913 520.4444 431.72928 519.23804 444.57455 505.67496 C 455.13257 493.75232 453.96295 480.32654 451.48016 466.7698 C 445.9432 424.60095 439.7796 382.52124 434.04535 340.38327 C 431.22012 316.85663 427.2732 293.48856 424.37268 269.9823 C 424.0885 252.93494 409.12173 237.42859 391.4369 239.49876 C 374.92816 240.97502 361.97464 255.50237 361.2582 271.96204 Z " />
</g>
</svg>
