<svg version="1.1" id="privacypolicy" xmlns="http://www.w3.org/2000/svg" xmlns:xlink="http://www.w3.org/1999/xlink" x="0px" y="0px" viewBox="0 0 720 720" style="fill-rule:evenodd;stroke:none" xml:space="preserve">
<g>
<path d="M 56.0 209.82521 C 55.517548 217.75914 57.89049 225.07372 60.47588 232.19368 C 76.08677 286.7041 97.62354 339.24997 121.08526 390.72992 C 138.39935 427.65692 157.22063 463.82016 178.45885 498.67892 C 210.64148 551.28595 247.56293 602.475 296.00955 641.4103 C 318.55392 657.84534 350.197 677.6673 384.32495 665.2648 C 413.5022 654.95715 437.4955 634.03033 458.9751 612.5249 C 511.0154 558.7049 549.6463 493.54172 583.8527 427.52426 C 601.7652 393.45636 616.7162 357.83228 631.1495 322.19922 C 638.0402 303.87997 645.6513 285.80273 651.2094 267.02206 C 654.67633 257.41357 657.65234 247.64647 660.8626 237.96286 C 663.6631 228.61429 667.51306 219.32707 666.99994 209.37335 C 667.88165 195.85805 658.4737 182.51212 645.427 178.73329 C 631.53094 174.10582 620.4638 180.50867 608.1544 185.87865 C 562.45135 204.15715 509.80405 201.17116 464.89777 182.10506 C 448.58133 175.2148 432.98572 166.44905 418.98965 155.57947 C 413.18704 150.6526 406.84375 146.3895 401.05103 141.47154 C 391.0025 132.10406 381.29172 116.41859 367.60916 114.5033 C 361.35886 113.450745 353.72272 114.2448 348.26965 116.16561 C 337.45703 121.45666 331.89758 133.419 322.69382 140.59686 C 291.8326 166.86102 255.62418 188.66943 214.8391 194.86433 C 192.95305 198.84413 170.4763 199.06113 148.53581 195.41986 C 138.22421 194.18628 128.3995 190.88791 118.68581 187.37596 C 108.99779 184.00845 98.183044 177.84583 88.62509 177.29932 C 71.130936 176.0377 54.448395 191.88728 56.0 209.82521 Z M 258.03745 403.26102 C 257.42337 415.4746 267.7702 422.13574 274.3226 428.8895 C 284.00125 440.35623 294.83716 450.85806 303.57956 463.1158 C 311.67786 474.6238 322.4061 487.71454 341.13516 483.32217 C 359.27597 477.08615 370.4793 459.87732 381.7953 445.5899 C 392.62036 430.48917 403.03247 415.09616 414.266 400.29144 C 436.64777 370.92172 465.68814 337.50592 494.3251 318.82675 C 505.49506 309.50583 502.75446 288.9813 488.68637 283.91287 C 475.02933 277.8938 462.50406 288.9647 453.21567 295.59787 C 419.42575 323.29645 391.81744 357.5513 366.70212 393.08853 C 360.58417 401.83182 354.4889 410.59875 348.15292 419.16977 C 345.5889 422.41577 343.2463 425.82724 340.68008 429.05984 C 335.24603 437.6099 329.32736 426.59647 325.94775 422.5606 C 318.97867 414.48856 311.73474 406.69077 304.61435 398.7687 C 298.11957 390.51233 288.53857 382.69687 277.44098 383.07755 C 266.9812 383.03296 257.67224 392.60104 258.03745 403.26102 Z M 349.0 61.0 C 350.0157 61.0 350.9843 61.0 352.0 61.0 C 352.0 59.662983 352.0 58.33655 352.0 57.0 C 350.98978 57.0 350.0069 57.0 349.0 57.0 C 349.0 58.3344 349.0 59.666992 349.0 61.0 Z " />
</g>
</svg>
