<svg version="1.1" id="profile" xmlns="http://www.w3.org/2000/svg" xmlns:xlink="http://www.w3.org/1999/xlink" x="0px" y="0px" viewBox="0 0 720 720" style="fill-rule:evenodd;stroke:none" xml:space="preserve">
  <g>
    <path d="M 118.0 245.0 C 116.80021 260.79257 116.209915 276.69244 119.74173 292.28192 C 126.62818 330.1374 173.9731 372.51828 221.87204 353.52417 C 240.22212 345.1135 254.95413 329.67804 263.25928 311.44113 C 272.2822 291.58438 272.2568 269.0672 269.6927 247.85507 C 269.06006 240.88487 277.42996 239.07684 279.67117 233.48355 C 285.2174 223.34068 281.5028 209.42526 270.92075 204.6867 C 263.00336 200.8969 254.12375 200.7866 245.56187 201.0 C 218.17693 201.0 190.79996 201.0 163.431 201.0 C 148.4495 201.0 133.43436 201.0 118.46884 201.0 C 103.895 201.0 89.27952 201.0 74.70567 201.0 C 58.954525 201.80899 39.233387 198.92331 25.506721 204.8031 C 15.19557 208.84175 10.147135 222.14212 15.668416 232.04561 C 23.528444 247.83241 50.04858 242.28645 63.048676 243.41473 C 81.35725 244.23 99.68285 244.54488 118.0 245.0 Z M 283.0266 518.8658 C 282.35648 532.9835 296.56317 540.5195 307.20074 542.02905 C 332.1284 546.57715 357.89188 553.18823 383.3475 548.0241 C 395.9165 545.3331 409.00546 544.80835 421.2467 540.671 C 431.31766 536.94226 442.5218 529.3575 439.53845 514.6479 C 437.58353 500.8371 424.02286 497.106 412.2646 498.1269 C 394.38904 498.89655 374.00638 507.47498 357.42688 505.36063 C 338.9646 504.21982 321.01437 497.6619 302.39325 498.13382 C 292.00543 498.41827 282.36472 509.3252 283.0266 518.8658 Z M 456.0 244.5 C 445.00644 276.59366 455.25735 315.88458 479.51752 339.38004 C 494.75018 354.0709 516.5806 362.6533 537.69 357.54172 C 558.0123 352.89316 575.7622 340.08743 588.48334 323.83307 C 605.75934 301.76276 608.25757 271.6545 604.0 245.0 C 620.411 245.01163 636.80804 243.81438 653.2124 243.57336 C 665.65826 242.96927 678.13837 243.11177 690.5825 242.87231 C 710.2963 241.60266 714.99866 215.75005 700.8389 206.43645 C 693.76794 201.52798 683.1583 201.15984 675.66235 201.0 C 666.27515 201.0 656.88794 201.0 647.50073 201.0 C 632.73474 201.0 617.9271 201.0 603.16113 201.0 C 588.1735 201.0 573.1939 201.0 558.2223 201.0 C 530.0388 201.0 501.90488 201.0 473.73737 201.0 C 462.28497 200.84735 446.61526 200.8224 441.62796 216.6808 C 435.82648 230.29057 446.93677 237.55415 456.0 244.5 Z " />
</g>
</svg>
