<svg version="1.1" id="search" xmlns="http://www.w3.org/2000/svg" xmlns:xlink="http://www.w3.org/1999/xlink" x="0px" y="0px" viewBox="0 0 720 720" style="fill-rule:evenodd;stroke:none" xml:space="preserve">
  <g>
    <path d="M 421.5 498.0 C 434.58582 510.86346 447.47815 523.8672 459.87024 537.37024 C 469.5231 546.3743 479.60712 559.0613 490.7834 564.3671 C 509.39716 573.37616 534.0041 569.2053 547.87006 553.62994 C 562.76013 540.1901 566.2507 513.3917 557.8263 497.65405 C 554.7732 489.84927 549.11414 483.82687 542.89777 478.39774 C 525.753 461.25302 508.6018 444.1018 491.45993 426.95993 C 491.31113 426.81113 491.13654 426.63654 491.0 426.5 C 511.99066 389.0592 519.4572 343.84393 512.1096 301.5783 C 505.38324 261.45398 485.37537 223.71866 455.5249 196.0249 C 419.95032 160.75085 369.31204 142.42644 319.6313 143.16904 C 269.6047 144.47351 219.96202 165.95894 185.76726 202.73274 C 150.40308 238.7641 132.37398 289.49457 133.30731 339.41418 C 135.04604 389.2183 156.14091 438.6786 193.10226 472.60226 C 222.22115 500.96313 260.9249 518.8838 301.2079 523.8264 C 342.54892 528.5488 385.86993 519.65814 421.5 498.0 Z M 218.0 333.93558 C 217.04677 361.95493 229.57526 388.99713 248.39444 408.89444 C 268.45258 428.1199 295.8782 440.53253 323.94638 440.0 C 351.58994 440.3898 379.58603 429.431 398.975 409.525 C 420.0468 390.05048 429.99008 361.6023 430.64905 333.55637 C 429.8874 305.93195 419.51355 278.5726 399.52512 259.02512 C 379.7841 239.02792 351.71756 227.15234 323.50842 228.0 C 295.44888 227.11684 268.24124 239.97072 248.4003 259.10236 C 229.84244 279.05966 216.94858 305.96252 218.0 333.93558 Z " />
</g>
</svg>
