<svg version="1.1" id="server" xmlns="http://www.w3.org/2000/svg" xmlns:xlink="http://www.w3.org/1999/xlink" x="0px" y="0px" viewBox="0 0 1024 1024" style="fill-rule:evenodd;stroke:none" xml:space="preserve">
  <g>
<path d="M 76.0 253.74638 C 76.0 270.80435 76.0 287.61078 76.0 304.4 C 75.27057 316.30206 75.99194 328.80856 83.29525 338.90503 C 92.11438 353.9812 109.83434 362.04654 126.88691 361.0 C 145.68481 361.0 164.48273 361.0 183.28064 361.0 C 328.0645 361.0 472.84842 361.0 617.6323 361.0 C 690.22424 361.0 762.81616 361.0 835.4081 361.0 C 853.6279 361.0 871.79816 361.0 890.002 361.0 C 902.3682 361.007 915.6736 362.4736 926.90186 356.03677 C 943.7456 348.5697 953.4615 330.38086 953.6823 312.58557 C 954.522 292.5478 953.5839 272.4664 954.0 252.423 C 953.859 234.21152 954.1724 216.02579 953.9057 197.82697 C 953.7232 183.05801 949.0092 167.51312 937.01624 157.83081 C 925.66974 147.59935 910.281 145.08527 895.6223 146.0 C 658.2486 146.0 420.88287 146.0 183.52518 146.0 C 166.33356 146.0 149.10826 146.0 131.93263 146.0 C 120.08126 145.237 108.04283 146.9879 97.98537 153.72632 C 83.68445 162.6528 74.89377 179.30917 76.0 196.16174 C 76.0 215.28062 76.0 234.3821 76.0 253.74638 Z M 76.0 515.747 C 76.0 533.004 76.0 550.011 76.0 567.0 C 75.311905 578.8501 76.14479 591.3651 83.591934 601.30756 C 92.54537 615.7855 109.424965 623.9886 126.26561 622.9998 C 145.26971 623.00037 164.25435 622.9997 183.25427 623.0 C 327.61176 623.0 472.0029 623.0 616.34436 623.0 C 688.7201 623.0 761.1295 623.0 833.48926 623.0 C 851.69855 623.0 869.86615 623.0 888.07544 623.0 C 900.9223 623.12616 914.5106 624.406 926.36127 618.286 C 943.0149 610.8798 953.3255 593.0422 953.6347 575.1856 C 954.57745 555.07324 953.5443 534.93866 954.0 514.81885 C 953.8889 496.64117 954.13574 478.47205 953.92596 460.30838 C 953.911 445.02997 948.8579 429.2461 936.54706 419.2861 C 925.2696 409.31195 910.08514 407.13165 895.635 408.0 C 658.12537 408.0 420.6237 408.0 183.13004 408.0 C 166.13707 408.0 149.1441 408.0 132.15115 408.0 C 120.379555 407.56815 107.959 408.58014 97.93872 415.5586 C 83.49397 424.46808 74.826645 441.1983 76.0 458.1619 C 76.0 477.28058 76.0 496.38367 76.0 515.747 Z M 76.0 777.2962 C 76.0 794.5176 76.0 811.52045 76.0 828.5 C 75.30375 840.5096 76.019226 853.22 83.591934 863.30756 C 92.80086 878.0986 110.328835 886.1263 127.489105 885.0 C 146.29707 885.0 165.0634 885.0 183.87138 885.0 C 328.234 885.0 472.58865 885.0 616.9353 885.0 C 689.29865 885.0 761.7037 885.0 834.0671 885.0 C 852.26135 885.0 870.4556 885.0 888.6499 885.0 C 901.4239 885.0999 915.05066 886.33887 926.78394 880.0558 C 943.5927 871.99335 953.7279 854.0645 953.74146 835.67615 C 954.44037 815.59625 953.6458 795.4643 954.0 775.38245 C 953.8451 757.43994 954.19 739.5233 953.89465 721.59625 C 953.7319 706.3821 948.4644 690.73334 936.16394 680.9458 C 923.33136 669.63104 909.2142 669.51996 894.3163 670.0 C 657.16187 670.0 420.0572 670.0 182.91881 670.0 C 165.92365 670.0 148.92848 670.0 131.93332 670.0 C 120.1362 669.4402 107.6214 670.2861 97.69241 677.5919 C 83.30177 686.6182 74.842995 703.4823 76.0 720.35706 C 76.0 739.27014 76.0 758.1647 76.0 777.2962 Z M 132.00552 260.23706 C 131.5036 288.3045 156.96925 313.62515 184.88303 311.99414 C 213.26517 312.93765 236.85686 286.405 235.6454 258.9262 C 235.42346 231.10242 209.69429 206.48074 181.67693 209.00853 C 167.82706 208.33914 155.00917 215.11423 146.12994 225.37006 C 136.70596 234.16145 131.79443 247.12006 132.00552 260.23706 Z M 132.0129 521.23566 C 131.5274 535.995 137.6076 549.9209 148.32753 559.58435 C 158.4196 569.26746 171.97783 574.7692 186.08351 573.5497 C 214.17819 572.98224 237.48758 546.6391 235.4699 518.9368 C 235.19351 490.69714 208.20709 467.80826 180.69316 470.0741 C 154.343 470.97736 131.94522 494.8324 132.0129 521.23566 Z M 132.00552 783.23706 C 131.39201 811.5346 157.04424 836.3964 184.99419 834.98553 C 213.51115 835.4979 237.04463 809.36127 235.59027 781.4786 C 235.2065 753.2923 209.46771 730.1908 181.77516 731.48016 C 154.4867 731.50635 131.66637 756.2344 132.00552 783.23706 Z " />
</g>
</svg>
