<svg version="1.1" id="settings" xmlns="http://www.w3.org/2000/svg" xmlns:xlink="http://www.w3.org/1999/xlink" x="0px" y="0px" viewBox="0 0 720 720" style="fill-rule:evenodd;stroke:none" xml:space="preserve">
  <g>
    <path
    d="M 165.0 358.0 C 162.78915 373.75284 162.1785 393.12494 165.0 407.5 C 161.32364 409.9197 154.86183 408.6348 149.96175 409.75992 C 131.13153 412.06046 111.85243 412.9928 93.62766 418.64066 C 77.82902 423.12665 70.47993 436.58624 73.57002 451.24197 C 76.981544 472.001 87.40531 490.46512 97.43473 508.55035 C 102.51049 517.08264 107.63589 525.6041 113.80389 533.40686 C 119.90505 541.1501 125.57372 549.9474 134.01732 555.4292 C 151.7212 565.3796 162.06842 549.4352 174.3909 540.1734 C 180.35263 535.12994 186.48907 530.27136 192.39494 525.1677 C 198.46802 521.2796 205.22874 513.4205 210.66602 511.0 C 214.07945 515.013 217.4165 519.0794 221.23267 522.73267 C 224.26584 526.7902 230.37119 529.41925 232.0 533.5 C 223.43787 543.1503 215.37378 553.2443 207.1838 563.2031 C 197.31607 576.25244 173.95772 592.52124 190.19966 612.5954 C 203.30464 626.0266 219.25864 636.4621 235.33253 645.9075 C 253.64127 656.1502 272.73764 666.971 294.00146 669.59656 C 305.1249 671.7236 316.21622 666.23706 321.21268 656.1035 C 326.35022 646.53564 327.9381 635.53937 329.50183 624.9644 C 331.2434 609.3374 333.47675 593.7233 334.0 578.0 C 350.92383 580.2073 368.08154 580.71826 385.0 578.0 C 385.76013 590.9667 387.65997 603.8838 388.84393 616.8056 C 391.53442 635.04877 392.61786 657.64087 409.3544 667.46045 C 418.81223 671.8843 429.4958 669.61566 438.9358 666.57855 C 448.2354 664.289 456.90482 660.1585 465.36554 655.8232 C 483.03915 647.32007 499.87097 637.1466 515.3103 625.0407 C 522.3309 619.12646 531.6613 611.5836 534.2897 603.2525 C 537.7747 591.69 528.9761 582.83044 522.6281 575.78644 C 510.69916 561.5982 499.06522 547.0246 487.0 533.0 C 494.8131 525.7209 502.68738 518.2786 509.5 510.0 C 518.6178 519.19696 529.3627 526.5884 539.0005 535.19293 C 546.4972 541.0813 553.61847 547.40576 561.0169 553.3969 C 566.6668 558.20764 574.64764 559.98505 581.58923 557.2032 C 591.0245 553.26526 599.1104 541.15894 604.38135 535.1322 C 610.2741 526.92633 616.3184 518.7691 621.1019 509.83923 C 631.58624 492.003 641.3265 473.27817 645.4602 452.82013 C 647.20984 442.21756 646.7226 430.12323 634.6323 422.96896 C 625.56586 417.62534 615.0625 415.2826 604.76 413.87845 C 588.21075 412.02588 571.6667 409.411 555.0 409.0 C 556.2723 391.99948 556.3789 374.99124 555.0 358.0 C 568.1772 356.90958 581.32196 355.246 594.47595 353.92615 C 613.3651 350.8908 638.4199 349.684 644.9699 330.8643 C 648.8685 311.48505 639.09937 292.1318 631.35657 275.09863 C 621.9063 257.83414 612.4444 240.41435 599.6636 225.31291 C 593.8898 218.66841 587.1036 208.51318 575.48584 208.07823 C 563.9837 207.19821 556.67017 217.10214 549.23645 222.81471 C 535.76544 233.60818 522.6568 244.86514 509.5 256.0 C 505.59885 252.4553 502.45993 248.23323 498.89322 244.40117 C 494.96393 240.7115 490.63876 237.49973 487.0 233.5 C 495.67715 222.41612 505.44598 212.07896 514.1928 200.99962 C 519.8418 192.70966 528.9925 184.65436 533.1791 176.4172 C 541.0152 159.09128 522.2864 146.57973 511.082 138.06952 C 498.73743 128.89781 485.40665 121.14474 471.9256 113.83293 C 463.0928 108.51147 451.67813 104.26058 442.82526 101.102646 C 429.35663 96.41837 409.6183 90.62197 398.99478 109.05548 C 390.6895 123.51253 390.35287 140.78212 388.0315 156.80203 C 386.87 167.18385 385.8219 177.58878 385.0 188.0 C 368.00058 186.66606 350.98837 186.66728 334.0 188.0 C 333.65518 174.89426 331.6945 161.87346 330.3459 148.85239 C 328.4738 131.06819 325.29312 106.996414 310.00192 99.03948 C 300.84726 94.34936 290.20355 96.97223 280.91086 99.595024 C 272.00284 102.14888 263.38162 105.57942 255.20059 109.90844 C 237.64233 118.596306 220.49995 128.40874 205.05493 140.53566 C 197.5472 146.70282 188.47763 152.6009 185.18852 162.3581 C 181.23686 173.2935 189.15578 182.33788 195.36046 189.00525 C 207.20723 204.02808 220.27634 218.52025 232.0 233.5 C 228.37296 237.12704 224.75487 240.74513 221.12993 244.37007 C 218.21324 248.0948 212.12294 252.07645 211.0 256.0 C 210.50066 256.0 209.99336 256.0 209.5 256.0 C 200.54817 247.1707 190.13971 239.9472 180.83386 231.51054 C 173.38983 225.4277 165.95123 219.35594 158.61061 213.16533 C 144.02728 201.28615 130.28574 211.21289 121.86431 222.58424 C 112.9051 232.98389 105.47939 244.54745 98.40257 256.24765 C 88.0799 274.3284 77.482285 293.07703 73.784615 313.90256 C 70.75814 324.37222 74.0863 335.96887 83.09303 342.24387 C 91.5378 348.733 104.284706 350.7256 113.55025 352.41635 C 130.64713 354.65564 147.81386 356.62955 165.0 358.0 Z M 111.0 313.75 C 111.99846 315.7242 115.31362 315.68375 117.57729 316.2714 C 120.19619 316.72183 122.8317 316.97116 125.45415 317.29718 C 151.32124 320.8583 178.149 323.22754 203.0 331.5 C 191.4596 365.36203 193.20706 402.0965 203.0 436.0 C 187.74927 438.3137 172.86737 443.06213 157.52672 445.01105 C 142.03658 447.1565 126.48926 448.8956 111.0 451.0 C 113.3971 463.3746 120.52754 474.27133 126.126976 485.3033 C 132.02437 495.6169 139.13899 507.89023 146.5 516.0 C 157.91074 506.69568 169.14708 497.11865 180.56453 487.82886 C 191.04428 478.6026 204.9478 468.61584 217.0 464.0 C 230.36618 490.14236 252.9608 512.51794 279.0 526.0 C 267.03952 552.88556 244.19171 573.0841 227.0 596.5 C 236.0607 604.801 247.20438 610.44 257.6006 616.7725 C 268.5439 622.9238 279.6589 629.07874 292.0 632.0 C 293.65637 616.54486 296.03763 601.1704 297.79984 585.73267 C 299.7511 570.27216 304.33603 555.30804 307.0 540.0 C 324.11478 544.04755 341.29184 548.7941 359.1349 547.9968 C 377.1566 548.6515 394.70905 544.22363 412.0 540.0 C 415.3314 555.15063 418.9866 570.36194 421.4613 585.6854 C 424.26865 601.0135 424.54605 616.7771 428.0 632.0 C 451.33426 625.05145 471.57645 610.41833 492.0 598.0 C 491.68475 594.7176 488.2046 591.58875 486.01703 588.5166 C 477.1662 577.5487 468.01468 566.8382 458.86066 556.1284 C 452.49527 548.61957 447.26663 539.7906 442.5603 530.9798 C 439.37933 524.1061 452.33765 520.4579 455.92023 516.7164 C 466.13885 510.1883 474.40762 501.1808 482.84442 492.61603 C 491.44336 484.7689 497.07806 472.21616 503.5 464.0 C 530.16003 476.4541 550.2173 499.5961 574.0 516.0 C 585.62305 495.9752 604.13293 472.7308 608.0 451.0 C 577.48157 446.3708 545.173 445.19275 516.0 434.5 C 522.32574 418.65836 524.0329 400.7555 524.0 383.79364 C 524.59045 365.85483 521.6257 348.01065 516.0 331.0 C 530.981 327.6429 546.0661 324.20804 561.18616 321.47873 C 576.69556 318.73685 592.5867 318.26215 608.0 315.0 C 605.60815 303.15094 598.17993 290.4911 593.0242 280.85672 C 587.30304 270.47357 581.11884 260.2971 573.75 251.0 C 548.6003 265.29807 530.396 292.8003 502.0 302.0 C 489.1133 274.89603 465.3806 254.43126 440.0 239.5 C 447.01038 227.06796 454.20285 214.37793 464.2879 204.04353 C 472.72568 192.58769 485.28354 180.64473 492.0 169.5 C 478.27338 158.23215 462.4024 149.79564 446.6341 141.82307 C 442.22473 139.44722 437.6095 137.44582 432.77826 136.13866 C 431.34042 135.99704 429.2286 135.3834 428.20813 135.99266 C 424.34506 147.39896 425.16412 160.83507 422.66437 172.72969 C 420.3101 191.04395 415.8782 208.98627 412.0 227.0 C 378.96957 216.05798 341.40228 214.45103 308.5 227.0 C 297.63196 197.95752 296.45935 165.48451 292.0 135.0 C 279.6617 136.4946 267.03928 144.98784 257.15277 149.93347 C 246.92899 156.169 235.88692 161.88618 227.0 170.0 C 244.99399 192.41074 265.3317 213.50002 279.0 239.0 C 273.8394 244.49014 265.843 246.53773 260.37555 251.73793 C 249.65367 259.64362 239.99738 268.80457 231.7992 279.2937 C 228.76338 283.05673 225.76604 286.88016 223.42776 291.12674 C 220.9134 294.42386 218.96909 299.25354 216.14716 301.3714 C 209.70038 300.58835 203.04816 294.24573 197.2214 291.64334 C 187.92456 285.86203 180.16974 277.91858 171.6088 271.17392 C 163.41258 263.90555 154.53473 257.42673 146.5 250.0 C 131.77673 269.13654 119.205734 291.2899 111.0 313.75 Z M 246.0 383.2046 C 243.49857 444.1252 299.38037 499.1613 359.70248 497.0 C 389.9877 497.93903 418.97394 484.27747 440.57654 463.85788 C 461.6817 442.3636 473.56808 413.39148 473.86166 383.28278 C 473.0534 353.8729 462.50903 323.70227 440.6299 303.1299 C 420.00348 280.9973 389.70795 269.4553 359.8531 269.0742 C 330.10486 269.11542 300.96964 280.7707 279.76526 301.73474 C 258.52103 322.76965 245.08635 352.77332 246.0 383.2046 Z M 308.0 383.39014 C 306.7779 410.81613 332.87155 435.91385 359.80008 434.99554 C 373.5841 435.25018 387.08008 429.19226 396.83942 419.5947 C 406.2139 409.85184 411.55243 396.38693 411.82047 382.92175 C 411.8653 355.2928 387.06757 330.7292 359.46393 331.0953 C 332.18484 330.8114 306.44913 355.3246 308.0 383.39014 Z " />
</g>
</svg>
