<svg version="1.1" id="terms" xmlns="http://www.w3.org/2000/svg" xmlns:xlink="http://www.w3.org/1999/xlink" x="0px" y="0px" viewBox="0 0 720 720" style="fill-rule:evenodd;stroke:none" xml:space="preserve">
<g>
<path d="M 158.0 339.74612 C 158.0303 377.02374 157.96304 414.02502 158.01996 451.04327 C 158.7533 464.48724 158.0392 477.90436 158.00046 491.39322 C 158.04257 503.366 158.46811 515.3454 158.65565 527.3154 C 158.58463 535.9222 157.3199 547.10455 165.98537 554.45605 C 172.6744 562.02704 181.03258 561.4961 189.6327 561.2806 C 253.08499 562.5999 316.49826 561.6399 380.01968 562.0 C 412.9178 561.90454 445.81158 562.1765 478.70142 561.75696 C 490.981 561.6015 503.27844 561.44586 515.55365 561.29047 C 525.58826 560.8975 538.24445 562.3618 546.6157 557.61926 C 553.853 553.4908 559.4558 546.04987 560.79694 537.78345 C 562.5187 471.845 561.8824 405.84943 562.0 339.8952 C 562.9285 307.89523 561.0723 270.36484 561.9974 241.07622 C 562.1082 228.46233 561.92944 215.85973 561.5695 203.26656 C 560.5699 193.47998 562.5136 179.15991 558.89825 171.57205 C 554.6768 163.97289 546.83563 158.50552 538.0901 158.8858 C 471.87134 157.42963 405.6758 158.2751 339.38126 158.0 C 309.65103 158.14189 279.92047 157.81467 250.20647 158.1303 C 227.96184 158.57419 205.74403 158.49516 183.51668 159.08136 C 165.72977 161.26913 157.65979 177.00948 159.0 192.02724 C 158.46297 241.18492 157.2037 290.2524 158.0 339.74612 Z M 211.15068 463.24765 C 212.29605 475.82675 208.9168 492.2583 221.53131 501.58582 C 226.61633 505.51132 232.77083 508.10895 239.25568 508.05072 C 246.23659 508.59442 253.21309 509.2686 260.2038 508.54388 C 310.18304 506.99533 360.24478 508.82336 410.22733 508.0 C 422.82178 508.00015 435.42166 507.99982 448.01465 508.0001 C 464.45135 507.96838 486.11948 511.47162 499.00037 501.16757 C 506.76776 495.21637 508.74924 487.51428 508.0 478.8674 C 508.0 469.4895 508.0 460.1116 508.0 450.73367 C 508.0 400.03925 508.0 349.38638 508.0 298.69196 C 508.37546 286.08948 507.45395 273.3951 508.51178 260.82693 C 508.60217 251.67905 507.55295 242.48723 507.76013 233.31418 C 506.3202 221.46866 492.5266 212.25273 482.3613 212.02455 C 468.82455 210.66695 455.29105 211.5433 441.7322 212.0 C 401.74448 212.0 361.7567 212.0 321.76898 212.0 C 306.7597 212.0 291.79208 212.0 276.78278 212.0 C 264.11652 211.73784 251.45686 210.7003 238.81503 211.9612 C 228.67693 212.09439 219.3152 218.43915 214.37692 227.02599 C 210.1159 235.0149 213.09178 246.9409 212.0 255.49977 C 212.0 290.41327 212.0 325.36035 212.0 360.25787 C 212.0 377.63162 212.0 394.96384 212.0 412.33762 C 211.6118 428.69702 212.67247 448.04315 211.15068 463.24765 Z M 235.05788 258.77466 C 234.79831 268.21478 242.18158 273.51804 250.15271 273.08295 C 292.6524 274.0582 335.16806 274.24747 377.66284 274.0 C 399.24832 274.13226 420.81802 274.0183 442.39017 273.52597 C 452.99933 272.94373 463.70172 273.70184 474.28204 272.68613 C 485.07 270.40295 488.1768 257.13898 481.66913 249.83498 C 474.2385 242.96632 464.3762 245.45581 455.11014 245.0 C 386.05118 245.27216 316.95468 244.6681 247.90596 245.17923 C 241.74236 245.77782 234.7423 250.81326 235.05788 258.77466 Z M 235.05788 318.77466 C 234.79831 328.21478 242.18158 333.51804 250.15271 333.08295 C 292.6524 334.0582 335.16806 334.24747 377.66284 334.0 C 399.24832 334.13226 420.81802 334.0183 442.39017 333.52597 C 452.99933 332.94373 463.70172 333.70184 474.28204 332.68613 C 485.07 330.40295 488.1768 317.13898 481.66913 309.835 C 474.2385 302.96634 464.3762 305.4558 455.11014 305.0 C 386.05118 305.27216 316.95468 304.6681 247.90596 305.17923 C 241.74236 305.7778 234.7423 310.81326 235.05788 318.77466 Z M 235.05788 378.77466 C 234.79831 388.21478 242.18158 393.51804 250.15271 393.08295 C 292.6524 394.0582 335.16806 394.24747 377.66284 394.0 C 399.24832 394.13226 420.81802 394.0183 442.39017 393.52597 C 452.99933 392.94373 463.70172 393.70184 474.28204 392.68613 C 485.07 390.40295 488.1768 377.13898 481.66913 369.835 C 474.2385 362.96634 464.3762 365.4558 455.11014 365.0 C 386.05118 365.27216 316.95468 364.6681 247.90596 365.17923 C 241.74236 365.7778 234.7423 370.81326 235.05788 378.77466 Z " />
</g>
</svg>
