<svg version="1.1" id="useradmin" xmlns="http://www.w3.org/2000/svg" xmlns:xlink="http://www.w3.org/1999/xlink" x="0px" y="0px" viewBox="0 0 1024 1024" style="fill-rule:evenodd;stroke:none" xml:space="preserve">
<g>
<path d="M 196.0 287.0 C 195.9665 301.89258 192.7106 321.86728 207.10606 335.60504 C 218.53358 348.49115 238.44872 351.43143 253.59856 343.98666 C 262.55908 339.35513 270.20425 331.51163 273.5422 321.85208 C 277.33316 310.6866 275.4861 298.55273 276.0 287.0 C 282.81363 286.66656 291.718 288.1413 297.3104 284.56287 C 304.2096 279.202 299.76193 270.92163 293.18668 269.5518 C 287.30087 268.51294 281.269 269.30313 275.33093 269.0 C 268.9513 269.0 262.57162 269.0 256.192 269.0 C 228.6856 269.0 201.14563 269.0 173.65518 269.0 C 167.41995 269.10782 159.18492 268.02112 154.29024 271.78055 C 150.83235 274.37552 150.22475 279.72623 152.95638 282.85974 C 157.52585 288.63776 167.40907 286.60355 173.55789 287.0 C 181.04301 287.0 188.5176 287.0 196.0 287.0 Z M 266.1963 475.495 C 265.97424 481.74823 272.66547 486.02838 277.8898 486.15854 C 298.32468 487.7912 318.9198 491.07535 339.444 489.2905 C 349.63544 488.34732 359.8368 487.42462 370.03653 486.59335 C 374.91394 486.47073 380.11145 485.81354 383.4046 481.78702 C 386.73856 478.25876 386.40854 472.52505 383.0668 469.27377 C 376.24698 463.4086 364.16437 467.39722 356.30603 467.23056 C 343.18063 468.5858 327.6971 470.09036 315.66513 468.9956 C 302.22305 468.64853 286.35767 465.09607 274.01193 466.4994 C 269.86545 467.5418 266.15527 470.98138 266.1963 475.495 Z M 376.0 287.0 C 375.9665 301.89258 372.7106 321.86728 387.10608 335.60504 C 398.5336 348.49115 418.4487 351.43143 433.59857 343.98666 C 442.55908 339.35513 450.20425 331.51163 453.5422 321.85208 C 457.33316 310.6866 455.4861 298.55273 456.0 287.0 C 463.19073 287.0 470.40927 287.0 477.6 287.0 C 484.32123 287.14648 502.58234 289.62717 500.37695 275.82837 C 497.44043 266.02878 480.36844 269.75146 473.53668 269.0 C 467.5419 269.0 461.58865 269.0 455.5939 269.0 C 449.4136 269.0 443.2333 269.0 437.053 269.0 C 416.12564 269.0 395.1647 269.0 374.25327 269.0 C 369.14465 269.23047 362.9547 268.54343 358.35458 269.67828 C 351.05563 271.17374 348.33994 280.4946 354.75064 284.64087 C 361.11148 288.33627 369.05188 286.44644 376.0 287.0 Z M 494.0 523.5 C 492.48883 526.04755 493.29074 530.22894 493.0 533.60077 C 492.29785 545.11224 492.5607 556.4399 496.42435 567.29865 C 499.98892 576.99567 506.11603 585.2299 514.30963 591.5906 C 516.9834 594.77246 522.8165 596.04095 524.0 599.0 C 531.4744 599.6863 540.8948 603.7909 549.8634 602.9985 C 553.7048 603.48474 555.68536 602.1819 558.62463 601.0424 C 568.7453 599.09064 579.27014 593.22314 585.28046 586.01904 C 586.99786 584.12946 588.8795 582.4567 590.22614 580.1224 C 591.9359 577.2741 595.01556 572.85675 595.9544 569.9403 C 597.77185 566.4476 596.9855 560.1756 600.0 559.0 C 600.0 553.0093 600.0 546.9907 600.0 541.0 C 599.2287 535.6726 601.1047 527.60077 599.0 523.5 C 607.40497 518.7062 619.55457 525.7143 627.7695 519.2385 C 631.78815 516.4298 632.76654 510.90042 631.29425 506.41776 C 630.5047 501.54132 624.0675 500.68225 623.0 498.0 C 578.2 498.0 533.4 498.0 488.6 498.0 C 477.41388 498.0 466.1861 498.0 455.0 498.0 C 451.492 498.4133 445.94608 497.25192 443.6586 499.2781 C 437.0248 501.5947 433.29385 507.46335 435.5491 514.04175 C 438.7757 525.1027 455.07376 521.2084 462.75616 522.0 C 468.34558 522.0 473.93503 522.0 479.52444 522.0 C 484.30743 522.4991 490.48367 521.033 494.0 523.5 Z M 620.0 787.0 C 635.3266 786.4131 650.52484 789.16345 665.762 789.6109 C 673.4039 788.85516 681.1025 788.60034 688.74 787.8224 C 692.71246 787.585 696.6856 787.31964 700.6529 787.1263 C 703.8698 786.65393 709.0887 787.75934 710.0 785.0 C 719.2089 784.4758 733.3282 785.60736 739.3276 780.03906 C 747.9664 773.587 745.1593 761.0541 735.4891 758.73114 C 735.5392 758.1024 735.2442 757.5378 735.0 757.0 C 729.472 757.2313 723.90045 756.67664 718.40265 757.276 C 710.41846 759.75507 700.9229 759.19324 692.06586 760.1209 C 685.4733 760.88324 677.52295 760.5336 671.5678 761.78516 C 669.7556 762.51154 667.18164 761.9869 664.8418 762.43463 C 657.3417 761.45447 647.9335 760.2455 639.2024 760.1935 C 634.5485 759.8981 629.899 759.6151 625.24713 759.3326 C 621.6267 758.44525 615.184 760.1065 614.0 757.0 C 609.3943 757.03345 604.7796 756.9592 600.1824 757.02203 C 598.7116 757.2666 596.9943 757.1051 595.3206 757.55035 C 593.86304 759.40686 590.7999 759.47577 589.26794 761.68243 C 583.2085 767.69653 585.0309 775.7472 591.0434 780.3644 C 596.8466 785.7587 607.20544 784.0212 614.40814 784.88226 C 616.6684 785.191 619.4294 784.7252 620.0 787.0 Z M 731.0 523.5 C 729.48883 526.0474 730.2907 530.23193 730.0 533.60504 C 730.0019 539.9492 729.99774 546.2781 730.0012 552.60846 C 729.60657 556.7731 731.7075 561.16144 732.60187 564.1848 C 733.86884 569.4854 736.0303 576.18463 739.6708 579.74475 C 742.3006 584.50616 748.3435 589.4308 751.627 592.4827 C 754.61414 594.394 757.8281 596.261 761.6412 598.548 C 765.41846 600.6792 772.5956 599.79376 774.0 603.0 C 781.80054 603.46625 789.3787 603.27997 796.7291 600.7483 C 807.0652 599.1495 816.26996 591.8858 822.23315 585.2675 C 825.5925 581.9034 829.5689 576.64526 831.08435 572.9886 C 832.04663 570.3623 833.3723 567.8963 834.1447 565.2374 C 834.9361 562.711 834.7151 559.7063 837.0 559.0 C 837.0 553.0093 837.0 546.9907 837.0 541.0 C 836.2287 535.6726 838.1047 527.60077 836.0 523.5 C 838.7437 521.3793 843.2566 522.3112 846.49146 522.0 C 859.3522 521.4316 872.35315 522.7239 885.16846 521.5337 C 891.0779 520.84784 895.66223 515.73035 894.8558 509.71902 C 894.8214 506.9722 893.78705 504.22827 891.6325 502.47144 C 889.70996 500.53485 886.7229 500.20428 886.0 498.0 C 845.6059 498.0 805.1781 498.0 764.8 498.0 C 754.5781 498.0 744.4059 498.0 734.2 498.0 C 726.6057 498.08835 718.99304 497.89227 711.40375 498.05817 C 710.4037 498.68295 708.30914 497.8319 707.35126 498.71945 C 705.93585 500.16974 703.47064 500.33124 701.5984 502.30035 C 695.1662 507.40274 697.85944 518.8587 705.6163 520.9513 C 713.5935 524.5306 724.7434 519.319 731.0 523.5 Z " />
</g>
</svg>
