<svg version="1.1" id="more_1" xmlns="http://www.w3.org/2000/svg" xmlns:xlink="http://www.w3.org/1999/xlink" x="0px" y="0px" viewBox="0 -960 760 960" width="24px"><path d="M189.199-423Q166-423 149-439.38q-17-16.379-17-40.093Q132-504 148.809-520.5q16.808-16.5 40.412-16.5 23.079 0 40.929 16.33Q248-504.341 248-480.527 248-456 230.199-439.5t-41 16.5Zm291.328 0Q456-423 439.5-439.38 423-455.759 423-479.473 423-504 439.38-520.5q16.379-16.5 40.093-16.5Q504-537 520.5-520.67q16.5 16.329 16.5 40.143Q537-456 520.67-439.5 504.341-423 480.527-423Zm290.287 0q-24.443 0-41.629-16.38Q712-455.759 712-479.473 712-504 729.261-520.5t41.5-16.5Q795-537 812-520.67q17 16.329 17 40.143Q829-456 811.922-439.5 794.845-423 770.814-423Z"/></svg>