<?xml version="1.0" encoding="UTF-8"?>
<svg id="a" data-name="レイヤー 1" xmlns="http://www.w3.org/2000/svg" width="1920" height="617.021" viewBox="0 0 1920 617.021">
  <path d="M697.989,491.01c-61.412,0-111.374-49.961-111.374-111.375v-101.721h36.186v101.721c0,41.459,33.729,75.189,75.187,75.189s75.185-33.73,75.185-75.189v-101.721h36.186v101.721c0,61.414-49.961,111.375-111.372,111.375Z" fill="#333b3a"/>
  <path d="M1280.001,491.01c-61.412,0-111.374-49.961-111.374-111.375v-101.721h36.186v101.721c0,41.459,33.729,75.189,75.187,75.189s75.187-33.73,75.187-75.189v-101.721h36.186v101.721c0,61.414-49.961,111.375-111.374,111.375Z" fill="#333b3a"/>
  <path d="M1808.626,491.01c-61.412,0-111.374-49.961-111.374-111.375v-101.721h36.186v101.721c0,41.459,33.729,75.189,75.187,75.189s75.187-33.73,75.187-75.189v-101.721h36.186v101.721c0,61.414-49.961,111.375-111.374,111.375Z" fill="#333b3a"/>
  <path d="M1076.134,352.564v71.353c0,19.037-15.487,34.525-34.524,34.525s-34.524-15.489-34.524-34.525v-35.836h-36.186v35.836c0,19.037-15.487,34.525-34.522,34.525s-34.524-15.489-34.524-34.525v-71.353h-36.186v71.353c0,38.992,31.72,70.712,70.71,70.712,20.903,0,39.659-9.171,52.615-23.638,12.957,14.467,31.713,23.638,52.617,23.638,38.99,0,70.71-31.72,70.71-70.712v-71.353h-36.186Z" fill="#333b3a"/>
  <polygon points="1429.866 489.762 1578.418 310.85 1440.409 310.85 1440.409 277.914 1648.576 277.914 1500.023 456.826 1638.033 456.826 1638.033 489.762 1429.866 489.762" fill="#333b3a"/>
  <path d="M222.275,617.021v-88.91c73.539,0,133.365-59.826,133.365-133.365,0-52.744-31.292-99.801-77.597-121.186l-187.536,310.87-39.931-48.519C17.961,496.28,0,446.147,0,394.746s17.961-101.535,50.576-141.165l68.651,56.495c-19.834,24.103-30.317,53.381-30.317,84.67,0,6.156.405,12.231,1.207,18.205l146.146-242.26,30.76,6.295c102.866,21.047,177.528,112.631,177.528,217.76,0,122.564-99.711,222.275-222.275,222.275Z" fill="#ffc832"/>
  <path d="M154.045,74.992c-9.994,35.309-2.299,71.379,17.692,98.945,31.473-12.999,56.932-39.684,66.926-74.993C248.658,63.637,240.962,27.567,220.972,0c-31.473,13-56.933,39.685-66.927,74.992Z" fill="#56c138"/>
</svg>